<svg width="26" height="16" fill="none" xmlns="http://www.w3.org/2000/svg"><mask id="a" maskUnits="userSpaceOnUse" x="0" y="0" width="26" height="16"><rect x=".25" y=".25" width="25.5" height="15.5" rx="1.75" fill="#fff" stroke="#fff" stroke-width=".5"/></mask><g mask="url(#a)"><rect width="26" height="16" rx="2" fill="#F1361D"/><path fill-rule="evenodd" clip-rule="evenodd" d="M8.612 3.513l.865.148.649.59.147-.864.59-.649L10 2.591 9.35 2l-.147.865-.59.648zm2.316 3.025l.75-.456.877.02-.456-.75.02-.876-.75.456-.876-.02.456.749-.02.877zm-1.016 4.895l-.733.482-.01-.877-.482-.733.877-.01.733-.482.01.877.482.733-.877.01zm.637-2.267l.871-.097.787.389-.097-.872.389-.786-.872.097-.786-.39.097.872-.39.787zM5.571 8.09L3.472 9.586l.775-2.459-2.072-1.534 2.578-.023.818-2.444.82 2.444 2.577.023-2.072 1.534.775 2.46-2.1-1.497z" fill="#FFDC42"/></g></svg>