<svg width="26" height="16" fill="none" xmlns="http://www.w3.org/2000/svg"><rect width="26" height="16" rx="2" fill="#fff"/><mask id="a" maskUnits="userSpaceOnUse" x="0" y="0" width="26" height="16"><rect width="26" height="16" rx="2" fill="#fff"/></mask><g mask="url(#a)"><path fill-rule="evenodd" clip-rule="evenodd" d="M0 4.267h26V0H0v4.267zM0 16h26v-4.267H0V16z" fill="#DD172C"/><path fill-rule="evenodd" clip-rule="evenodd" d="M0 11.733h26V4.267H0v7.466z" fill="#FFD133"/><path fill-rule="evenodd" clip-rule="evenodd" d="M7.286 7.286h1.143v.571H7.286v-.571z" fill="#FFEDB1"/><path d="M6.25 7.409a.333.333 0 01.332-.361H7.99c.195 0 .348.166.332.36l-.13 1.568a.909.909 0 01-1.812 0L6.25 7.41z" stroke="#A41517" stroke-width=".667"/><path fill-rule="evenodd" clip-rule="evenodd" d="M6.143 7.857h2.286v.572h-.572L7.286 9.57l-.572-1.14h-.571v-.572z" fill="#A41517"/><rect x="4.429" y="6.143" width="1.143" height="4" rx=".571" fill="#A41517"/><rect x="9" y="6.143" width="1.143" height="4" rx=".571" fill="#A41517"/><path d="M6.143 5.914c0-.505.41-.914.914-.914h.457c.505 0 .915.41.915.914a.229.229 0 01-.229.229H6.371a.229.229 0 01-.228-.229z" fill="#A41517"/></g></svg>