<svg width="18" height="19" fill="none" xmlns="http://www.w3.org/2000/svg"><g clip-path="url(#clip0_16583_291508)"><path d="M8.84 0c4.883 0 8.841 4.156 8.841 9.283s-3.958 9.282-8.84 9.282C3.958 18.565 0 14.41 0 9.283S3.958 0 8.84 0z" fill="#F5AC37"/><path d="M9.167 9.934h3.36c.071 0 .105 0 .11-.1a6.928 6.928 0 000-1.078c0-.07-.033-.099-.105-.099H5.847c-.083 0-.105.03-.105.11V9.8c0 .134 0 .134.132.134h3.293zm3.095-2.483a.118.118 0 000-.081 2.317 2.317 0 00-.2-.366 2.94 2.94 0 00-.409-.54 1.392 1.392 0 00-.254-.26 3.905 3.905 0 00-1.658-.883 3.933 3.933 0 00-.939-.104H5.835c-.083 0-.094.035-.094.11v2.06c0 .087 0 .11.105.11h6.376s.056-.012.067-.046h-.027zm0 3.69a1.224 1.224 0 00-.282 0H5.852c-.083 0-.11 0-.11.115v2.014c0 .093 0 .116.11.116h2.83c.134.01.27 0 .402-.029.41-.03.815-.124 1.2-.278.14-.051.275-.118.403-.198h.038a3.686 3.686 0 001.542-1.63s.038-.087-.005-.11zm-7.63 3.289v-3.208c0-.076 0-.087-.089-.087h-1.2c-.066 0-.093 0-.093-.093V9.94h1.282c.071 0 .1 0 .1-.099v-1.09c0-.07 0-.087-.089-.087h-1.2c-.066 0-.093 0-.093-.093V7.55c0-.064 0-.081.088-.081h1.188c.083 0 .105 0 .105-.11V4.232c0-.093 0-.117.11-.117h4.145c.3.013.6.048.895.105a5.255 5.255 0 011.73.673c.354.22.68.484.971.789.22.238.417.497.592.771.174.28.318.577.431.888a.145.145 0 00.165.122h.99c.126 0 .126 0 .132.128v.951c0 .093-.033.117-.122.117h-.762c-.078 0-.1 0-.094.104.03.353.03.708 0 1.061 0 .1 0 .11.105.11h.872c.039.053 0 .105 0 .158.006.067.006.135 0 .202v.703c0 .098-.027.127-.11.127h-1.044a.138.138 0 00-.16.11 4.653 4.653 0 01-1.161 1.776 6.724 6.724 0 01-.591.499c-.222.133-.437.273-.664.383a5.768 5.768 0 01-1.304.435c-.426.08-.859.116-1.293.11H4.63v-.006l.001-.001z" fill="#FEFEFD"/></g><defs><clipPath id="clip0_16583_291508"><path fill="#fff" d="M0 0h17.681v18.565H0z"/></clipPath></defs></svg>