<svg width="1500" height="1225" viewBox="0 0 1500 1225" fill="none" xmlns="http://www.w3.org/2000/svg">
<mask id="mask0" mask-type="alpha" maskUnits="userSpaceOnUse" x="-210" y="0" width="1920" height="1225">
<path d="M1710 1225H-210V0H1710V1225Z" fill="#0D3376"/>
</mask>
<g mask="url(#mask0)">
<path d="M340 151C377.555 151 408 181.445 408 219C408 256.555 377.555 287 340 287C302.445 287 272 256.555 272 219C272 181.445 302.445 151 340 151Z" fill="#0E409B"/>
<rect x="1477.2" y="754.259" width="971.638" height="515.321" rx="257.66" transform="rotate(45.4199 1477.2 754.259)" fill="#033288"/>
<rect x="1630.86" y="242.109" width="1012.82" height="632.991" rx="316.496" transform="rotate(45.4199 1630.86 242.109)" fill="#0D3989"/>
<rect x="-315.677" y="346" width="1462.93" height="789.433" rx="394.716" transform="rotate(45.4199 -315.677 346)" fill="#082B6C"/>
<rect x="82.3735" y="442.355" width="530.953" height="374.053" rx="187.026" transform="rotate(45.4199 82.3735 442.355)" fill="#033288"/>
<rect x="1048.04" y="808" width="244.348" height="244.348" rx="122.174" transform="rotate(45.4199 1048.04 808)" fill="#082B6C"/>
<path d="M1176.56 191C1263.82 191 1334 261.181 1334 348.442C1334 435.703 1263.82 507 1176.56 507C1089.3 507 1018 435.703 1018 348.442C1018 261.181 1089.3 191 1176.56 191Z" fill="#033288"/>
</g>
</svg>
