<svg width="8" height="7" fill="none" xmlns="http://www.w3.org/2000/svg"><path d="M0 .978A2.89 2.89 0 01.966.26 2.65 2.65 0 012.085.001a2.85 2.85 0 011.339.295l1.322.72c.395.196.822.294 1.28.294C6.77 1.31 7.428.923 8 .15v2c-.576.652-1.223.978-1.94.978-.458 0-.885-.098-1.28-.295l-1.288-.7a2.9 2.9 0 00-1.382-.314 2.42 2.42 0 00-1.135.304A2.909 2.909 0 000 2.98V.978zm0 3.873c.271-.307.588-.547.95-.719a2.54 2.54 0 011.1-.258 2.9 2.9 0 011.382.313l1.288.701c.396.197.822.295 1.28.295.763 0 1.43-.387 2-1.161v2C7.424 6.675 6.766 7 6.025 7c-.457 0-.884-.098-1.28-.295l-1.321-.72a2.847 2.847 0 00-1.34-.294c-.372 0-.745.101-1.118.304A2.937 2.937 0 000 6.852v-2z" fill="#282B30"/></svg>