<svg width="134" height="28" viewBox="0 0 134 28" fill="none" xmlns="http://www.w3.org/2000/svg">
<path d="M14.091 11.8557L18.762 7.07538L23.4355 11.8581L26.1538 9.0766L18.762 1.51172L11.3727 9.07414L14.091 11.8557ZM12.1709 13.8193L9.45266 11.0378L6.73438 13.8193L9.45266 16.6009L12.1709 13.8193ZM14.0904 15.7836L18.762 20.5639L23.4355 15.7812L26.155 18.5615L26.1538 18.5627L18.762 26.127L11.3727 18.5652L11.3685 18.5615L14.0904 15.7836ZM28.0708 16.6021L30.7891 13.8206L28.0708 11.0391L25.3526 13.8206L28.0708 16.6021Z" fill="#F3BA2F"/>
<path d="M21.5188 13.8155H21.5194L18.7613 10.9927L16.7235 13.0789L16.4891 13.3189L16.0055 13.813L16.002 13.8167L16.0055 13.821L18.7613 16.6407L21.5194 13.8186L21.5212 13.8167L21.5182 13.8155H21.5188ZM35.0258 7.474H40.937C42.4044 7.474 43.5137 7.85923 44.2656 8.62968C44.8479 9.2266 45.1382 9.96629 45.1382 10.8487V10.8857C45.1382 11.2592 45.0936 11.5884 45.0026 11.8746C44.9176 12.1488 44.7957 12.4092 44.6403 12.6481C44.4933 12.8742 44.3167 13.0782 44.1157 13.2543C43.9181 13.4274 43.7027 13.5774 43.4733 13.7017C44.2109 13.9878 44.7908 14.3761 45.2143 14.8672C45.6372 15.3583 45.849 16.0389 45.849 16.909V16.9459C45.849 17.5429 45.7372 18.0653 45.5129 18.5127C45.2864 18.9629 44.955 19.3477 44.5487 19.6321C44.13 19.9305 43.6268 20.1539 43.0379 20.3029C42.4502 20.4524 41.7983 20.5269 41.0833 20.5269H35.0258V7.474ZM40.3458 12.7509C40.9656 12.7509 41.4581 12.6426 41.8221 12.4247C42.1861 12.2069 42.3687 11.8555 42.3687 11.3712V11.3343C42.3687 10.8986 42.2105 10.5663 41.8947 10.3361C41.5788 10.106 41.1232 9.99152 40.5284 9.99152H37.7584V12.7509H40.3458ZM41.0935 18.0093C41.7127 18.0093 42.1986 17.8949 42.5507 17.6647C42.9035 17.4346 43.0795 17.077 43.0795 16.5921V16.5552C43.0795 16.1201 42.9154 15.7749 42.5876 15.5201C42.2593 15.2653 41.7311 15.1386 41.0019 15.1386H37.7584V18.0099H41.0935V18.0093ZM49.3703 7.474H52.1766V20.5269H49.3703V7.474ZM56.4265 7.474H59.0139L64.9906 15.5109V7.474H67.76V20.5269H65.3731L59.1959 12.2291V20.5269H56.4265V7.474ZM76.2563 7.38046H78.8437L84.3101 20.5269H81.3764L80.21 17.5995H74.8163L73.6504 20.5269H70.7894L76.2563 7.38046ZM79.2078 15.0635L77.5131 10.8303L75.8191 15.0635H79.2078ZM87.34 7.474H89.9274L95.9041 15.5109V7.474H98.6735V20.5269H96.2872L90.1095 12.2291V20.5269H87.34V7.474ZM108.773 20.7509C107.837 20.7509 106.969 20.5767 106.167 20.2284C105.391 19.8983 104.685 19.4136 104.09 18.8019C103.501 18.1913 103.037 17.4654 102.723 16.6666C102.393 15.8325 102.225 14.939 102.231 14.0377V14.0007C102.231 13.0678 102.395 12.1946 102.723 11.3804C103.041 10.5813 103.505 9.8531 104.09 9.23584C104.672 8.62045 105.371 8.13553 106.185 7.78107C106.999 7.42723 107.898 7.25 108.882 7.25C109.477 7.25 110.02 7.29985 110.513 7.39892C111.005 7.49861 111.451 7.63523 111.852 7.80938C112.244 7.97844 112.617 8.19096 112.964 8.44322C113.303 8.69245 113.619 8.96568 113.911 9.26414L112.126 11.3712C111.627 10.9115 111.12 10.5503 110.604 10.2894C110.087 10.0284 109.507 9.89799 108.864 9.89799C108.329 9.89799 107.834 10.0038 107.379 10.2149C106.932 10.4193 106.532 10.7177 106.203 11.0912C105.872 11.47 105.612 11.9095 105.438 12.3872C105.254 12.8904 105.161 13.4245 105.165 13.9626V14.0001C105.165 14.5595 105.256 15.0881 105.438 15.5847C105.62 16.0826 105.872 16.5176 106.194 16.8906C106.53 17.2784 106.941 17.5874 107.402 17.7965C107.862 18.0057 108.361 18.1101 108.864 18.1029C109.592 18.1029 110.209 17.9656 110.713 17.6924C111.217 17.4192 111.718 17.0463 112.216 16.5736L114.002 18.4198C113.686 18.7689 113.345 19.0929 112.982 19.389C112.63 19.6752 112.244 19.9207 111.824 20.1262C111.405 20.3312 110.946 20.4869 110.449 20.5921C109.951 20.6973 109.392 20.7509 108.773 20.7509ZM117.305 7.474H126.907V10.0284H120.074V12.6764H126.088V15.2309H120.074V17.9724H126.999V20.5269H117.305V7.474Z" fill="#F3BA2F"/>
</svg>
