<svg width="44" height="14" fill="none" xmlns="http://www.w3.org/2000/svg"><g clip-path="url(#clip0)"><path fill-rule="evenodd" clip-rule="evenodd" d="M22.626 4.492c-.024 1.938 1.754 3.02 3.094 3.662 1.377.66 1.84 1.083 1.834 1.673-.01.902-1.098 1.3-2.116 1.316-1.776.027-2.809-.472-3.63-.85l-.64 2.948c.824.374 2.35.7 3.93.715 3.714 0 6.143-1.805 6.156-4.603.014-3.55-4.989-3.747-4.954-5.334.011-.482.478-.995 1.5-1.126.506-.066 1.902-.116 3.485.602l.622-2.852a9.605 9.605 0 00-3.308-.598c-3.495 0-5.953 1.829-5.973 4.447zM37.878.291c-.678 0-1.25.39-1.505.987L31.07 13.746h3.71l.738-2.009h4.534l.428 2.009h3.27L40.897.291h-3.02zm.519 3.635l1.07 5.052h-2.932l1.862-5.052zM18.128.29l-2.924 13.455h3.535L21.662.291h-3.534zm-5.23 0l-3.68 9.158L7.73 1.662C7.555.792 6.866.29 6.1.29H.084L0 .68c1.235.264 2.638.69 3.488 1.145.52.278.669.521.84 1.182l2.819 10.738h3.736L16.611.291h-3.713z" fill="#fff"/></g><defs><clipPath id="clip0"><path fill="#fff" d="M0 0h43.75v14H0z"/></clipPath></defs></svg>