<svg width="5" height="4" fill="none" xmlns="http://www.w3.org/2000/svg"><path d="M0 .56C.17.382.37.245.604.147.837.05 1.07.001 1.303.001c.29-.007.568.049.837.168l.826.411a1.9 1.9 0 00.8.169C4.232.749 4.643.528 5 .085v1.143c-.36.373-.764.559-1.213.559a1.9 1.9 0 01-.8-.169l-.805-.4a1.955 1.955 0 00-.863-.18c-.233 0-.47.059-.71.175-.236.115-.44.279-.609.49V.559zm0 2.212a1.832 1.832 0 011.282-.558c.296-.007.584.052.863.179l.805.4a1.9 1.9 0 00.8.169c.477 0 .893-.221 1.25-.664v1.143C4.64 3.814 4.228 4 3.766 4a1.9 1.9 0 01-.8-.169l-.826-.41a1.92 1.92 0 00-.837-.17c-.233 0-.466.059-.7.175a1.795 1.795 0 00-.603.49V2.772z" fill="#252C44"/></svg>