<svg width="29" height="48" fill="none" xmlns="http://www.w3.org/2000/svg"><circle cx="17" cy="24" r="12" transform="rotate(-90 17 24)" fill="#ECF1F7"/><mask id="a" fill="#fff"><path fill-rule="evenodd" clip-rule="evenodd" d="M17 7C7.611 7 0 14.611 0 24s7.611 17 17 17v-2C8.716 39 2 32.284 2 24 2 15.716 8.716 9 17 9V7z"/></mask><path d="M17 7h1V6h-1v1zm0 34v1h1v-1h-1zm0-2h1v-1h-1v1zm0-30v1h1V9h-1zm0-3C7.059 6-1 14.059-1 24h2C1 15.163 8.163 8 17 8V6zM-1 24c0 9.941 8.059 18 18 18v-2C8.163 40 1 32.837 1 24h-2zm19 17v-2h-2v2h2zM1 24c0 8.837 7.163 16 16 16v-2C9.268 38 3 31.732 3 24H1zM17 8C8.163 8 1 15.163 1 24h2c0-7.732 6.268-14 14-14V8zm1 1V7h-2v2h2z" fill="#ECF1F7" mask="url(#a)"/><path d="M16 39h2v9h-2v-9zm0-39h2v9h-2V0z" fill="#ECF1F7"/></svg>