<svg width="26" height="16" fill="none" xmlns="http://www.w3.org/2000/svg"><rect width="26" height="16" rx="2" fill="#6DA544"/><path d="M12.931 1.912L20.863 8l-7.93 6.087L5 8l7.931-6.087z" fill="#FFDA44"/><path d="M12.93 11.477c.886 0 1.736-.366 2.362-1.018a3.553 3.553 0 00.978-2.46c0-.922-.352-1.807-.978-2.459a3.272 3.272 0 00-2.361-1.019 3.27 3.27 0 00-2.361 1.02 3.553 3.553 0 00-.978 2.458c0 .923.352 1.808.978 2.46a3.273 3.273 0 002.36 1.018z" fill="#F0F0F0"/><path d="M11.26 7.782a5.41 5.41 0 00-1.667.262c.01.735.242 1.449.666 2.037a3.344 3.344 0 001.689 1.24 3.212 3.212 0 002.065-.034 3.356 3.356 0 001.652-1.293 5.674 5.674 0 00-1.96-1.63 5.445 5.445 0 00-2.445-.582zm4.948.883a3.601 3.601 0 00-.41-2.455 3.365 3.365 0 00-1.881-1.54 3.216 3.216 0 00-2.387.167 3.417 3.417 0 00-1.667 1.788 6.623 6.623 0 013.424.17c1.11.358 2.114 1 2.921 1.87z" fill="#0052B4"/></svg>