<svg width="22" height="22" fill="none" xmlns="http://www.w3.org/2000/svg"><circle cx="11" cy="11" r="11" fill="#0F75FC"/><rect width="22" height="22" rx="11" fill="#3993FF"/><path fill-rule="evenodd" clip-rule="evenodd" d="M12.11 5.651a1.933 1.933 0 010 2.715l-.471.474-.018.015-.005.004-1.748 1.76-1.196 1.216a.92.92 0 00-.14 1.104.89.89 0 001.113.389 2.991 2.991 0 01-3.771-.299l-.034-.035-.033-.031a3.011 3.011 0 01.065-4.175l3.116-3.137A2.204 2.204 0 0110.548 5a2.194 2.194 0 011.561.651zM9.863 16.338a1.932 1.932 0 010-2.715l.471-.474.018-.015.005-.004 1.747-1.76 1.197-1.215a.92.92 0 00.14-1.105.888.888 0 00-1.113-.389 2.991 2.991 0 013.771.3l.034.034.032.032a3.011 3.011 0 01-.065 4.174l-3.115 3.137a2.205 2.205 0 01-1.56.652 2.194 2.194 0 01-1.562-.652z" fill="#fff"/></svg>